<svg width="18" height="18" viewBox="0 0 18 18" fill="none" xmlns="http://www.w3.org/2000/svg">
<path d="M4.75 0.75H2.75C1.64543 0.75 0.75 1.64543 0.75 2.75V3.75C0.75 4.85457 1.64543 5.75 2.75 5.75H4.75C5.85457 5.75 6.75 4.85457 6.75 3.75V2.75C6.75 1.64543 5.85457 0.75 4.75 0.75Z" stroke="#EBEBEB" stroke-width="1.5" stroke-linecap="round" stroke-linejoin="round"/>
<path d="M4.75 9.75H2.75C1.64543 9.75 0.75 10.6454 0.75 11.75V14.75C0.75 15.8546 1.64543 16.75 2.75 16.75H4.75C5.85457 16.75 6.75 15.8546 6.75 14.75V11.75C6.75 10.6454 5.85457 9.75 4.75 9.75Z" stroke="#EBEBEB" stroke-width="1.5" stroke-linecap="round" stroke-linejoin="round"/>
<path d="M14.75 0.75H12.75C11.6454 0.75 10.75 1.64543 10.75 2.75V14.75C10.75 15.8546 11.6454 16.75 12.75 16.75H14.75C15.8546 16.75 16.75 15.8546 16.75 14.75V2.75C16.75 1.64543 15.8546 0.75 14.75 0.75Z" stroke="#EBEBEB" stroke-width="1.5" stroke-linecap="round" stroke-linejoin="round"/>
</svg>
