<svg width="21" height="18" viewBox="0 0 21 18" fill="none" xmlns="http://www.w3.org/2000/svg">
<path fill-rule="evenodd" clip-rule="evenodd" d="M3 1.5C2.17157 1.5 1.5 2.17157 1.5 3V15C1.5 15.8284 2.17157 16.5 3 16.5H18C18.8284 16.5 19.5 15.8284 19.5 15V3C19.5 2.17157 18.8284 1.5 18 1.5H3ZM1.0961e-08 3C1.0961e-08 1.34315 1.34315 0 3 0H18C19.6569 0 21 1.34315 21 3V15C21 16.6569 19.6569 18 18 18H3C1.34315 18 1.0961e-08 16.6569 1.0961e-08 15V3Z" fill="#EBEBEB"/>
<path fill-rule="evenodd" clip-rule="evenodd" d="M14.25 4.5C13.8358 4.5 13.5 4.83579 13.5 5.25C13.5 5.66421 13.8358 6 14.25 6C14.6642 6 15 5.66421 15 5.25C15 4.83579 14.6642 4.5 14.25 4.5ZM12 5.25C12 4.00736 13.0074 3 14.25 3C15.4926 3 16.5 4.00736 16.5 5.25C16.5 6.49264 15.4926 7.5 14.25 7.5C13.0074 7.5 12 6.49264 12 5.25Z" fill="#EBEBEB"/>
<path fill-rule="evenodd" clip-rule="evenodd" d="M5.94598 7.87663C6.37491 7.49582 6.93309 7.2932 7.50643 7.31019C8.07955 7.32718 8.62457 7.56233 9.03015 7.9676L13.2798 12.2093C13.573 12.5019 13.5735 12.9768 13.2808 13.27C12.9882 13.5631 12.5133 13.5636 12.2202 13.271L7.97005 9.02882C7.83484 8.89363 7.65311 8.8152 7.462 8.80953C7.27092 8.80387 7.0849 8.87138 6.94194 8.99827C6.94191 8.99829 6.94197 8.99824 6.94194 8.99827L1.24835 14.0605C0.938796 14.3357 0.464739 14.3079 0.189512 13.9983C-0.0857143 13.6888 -0.0578869 13.2147 0.251666 12.9395L5.94598 7.87663Z" fill="#EBEBEB"/>
<path fill-rule="evenodd" clip-rule="evenodd" d="M16.3225 11.9511C16.1786 11.8317 15.9953 11.7702 15.8085 11.7789C15.6216 11.7876 15.4446 11.8658 15.3124 11.9983L9.53033 17.7804C9.23744 18.0733 8.76256 18.0733 8.46967 17.7804C8.17678 17.4875 8.17678 17.0126 8.46967 16.7197L14.2507 10.9387C14.2508 10.9386 14.2506 10.9388 14.2507 10.9387C14.6473 10.5415 15.1783 10.3065 15.739 10.2805C16.2999 10.2545 16.8502 10.4391 17.2819 10.7981L20.7304 13.6741C21.0485 13.9394 21.0913 14.4123 20.826 14.7304C20.5607 15.0485 20.0877 15.0913 19.7696 14.826L16.3225 11.9511C16.3224 11.951 16.3226 11.9512 16.3225 11.9511Z" fill="#EBEBEB"/>
</svg>
